<?xml version="1.0" encoding="utf-8"?>
<!-- Generator: Adobe Illustrator 24.1.0, SVG Export Plug-In . SVG Version: 6.00 Build 0)  -->
<svg version="1.1" xmlns="http://www.w3.org/2000/svg" xmlns:xlink="http://www.w3.org/1999/xlink" x="0px" y="0px"
	 viewBox="0 0 100 100" style="enable-background:new 0 0 100 100;" xml:space="preserve">
<style type="text/css">
	.st0{fill:#28C793;}
</style>
<g id="Layer_2">
</g>
<g id="Layer_1">
	<g>
		<g>
			<path class="st0" d="M97.3,64.8L81,9.9c-0.6-1.9-2.3-3.1-4.2-3.1H23.2c-1.9,0-3.6,1.3-4.2,3.1L2.7,64.8c-0.1,0.4-0.2,0.8-0.2,1.2
				v22.8c0,2.4,2,4.4,4.4,4.4h86.2c2.4,0,4.4-2,4.4-4.4V66.1C97.5,65.6,97.4,65.2,97.3,64.8z M71.7,64.6c-0.9,0-1.7,0.7-1.7,1.7v5.1
				c0,0.9-0.7,1.7-1.7,1.7H31.6c-0.9,0-1.7-0.7-1.7-1.7v-5.1c0-0.9-0.7-1.7-1.7-1.7H11.9l14.6-49.1h47.1l14.6,49.1H71.7z"/>
			<path class="st0" d="M53.1,24.4c-0.8-0.8-1.9-1.3-3.1-1.3c-1.2,0-2.3,0.5-3.1,1.3L35.5,35.8c-1.7,1.7-1.7,4.5,0,6.2
				s4.5,1.7,6.2,0l3.9-3.9v21.7c0,2.4,2,4.4,4.4,4.4s4.4-2,4.4-4.4V38.1l3.9,3.9c1.7,1.7,4.5,1.7,6.2,0c1.7-1.7,1.7-4.5,0-6.2
				L53.1,24.4z"/>
		</g>
	</g>
</g>
</svg>
